<?xml version="1.0" encoding="utf-8"?>
<!-- Generator: Adobe Illustrator 24.1.2, SVG Export Plug-In . SVG Version: 6.00 Build 0)  -->
<svg version="1.1" id="Layer_1" xmlns="http://www.w3.org/2000/svg" xmlns:xlink="http://www.w3.org/1999/xlink" x="0px" y="0px"
	 viewBox="0 0 1280 1024" style="enable-background:new 0 0 1280 1024;" xml:space="preserve">
<style type="text/css">
	.st0{fill:#7100FF;}
	.st1{fill:#FFFFFF;}
</style>
<g>
	<g>
		<polygon class="st0" points="815.29,441.38 464.78,441.38 424.24,511.6 464.78,581.81 815.29,581.81 855.83,511.6 		"/>
		<g>
			<path class="st1" d="M831.29,510.38l-27.47-42.85c0.37-0.56,0.59-1.23,0.59-1.95c0-1.95-1.59-3.54-3.54-3.54
				s-3.54,1.59-3.54,3.54s1.59,3.54,3.54,3.54c0.37,0,0.72-0.07,1.05-0.18l28.13,43.88l9.15-0.51l-10.8,18.59l-9-0.45l-9.27,15.45
				c-0.23-0.05-0.46-0.07-0.71-0.07c-1.95,0-3.54,1.59-3.54,3.54c0,1.95,1.59,3.54,3.54,3.54s3.54-1.59,3.54-3.54
				c0-0.85-0.32-1.63-0.82-2.24l8.55-14.25l6.37,0.32l-20.7,35.64h-247.2l-10.02-10.02l-60.88-1.13c-0.47-1.4-1.78-2.42-3.34-2.42
				c-1.95,0-3.54,1.59-3.54,3.54c0,1.95,1.59,3.54,3.54,3.54c1.51,0,2.8-0.96,3.3-2.3l59.92,1.11l10.04,10.04h249.55l35.71-61.48
				L831.29,510.38z"/>
			<path class="st1" d="M564.94,559.98c-0.49-1.37-1.79-2.36-3.32-2.36c-1.95,0-3.54,1.59-3.54,3.54c0,1.95,1.59,3.54,3.54,3.54
				c1.54,0,2.83-0.99,3.32-2.36h228.19c0.49,1.37,1.79,2.36,3.32,2.36c1.95,0,3.54-1.59,3.54-3.54c0-1.95-1.59-3.54-3.54-3.54
				c-1.54,0-2.83,0.99-3.32,2.36H564.94z"/>
			<path class="st1" d="M459.2,479.34c1.95,0,3.54-1.59,3.54-3.54c0-0.87-0.33-1.66-0.85-2.28l11.81-20.34h38.42l10.03,11.21h78.63
				c0.49,1.37,1.79,2.36,3.32,2.36c1.95,0,3.54-1.59,3.54-3.54s-1.59-3.54-3.54-3.54c-1.54,0-2.83,0.99-3.32,2.36h-77.57
				l-10.03-11.21h-40.83l-12.49,21.5c-0.21-0.04-0.43-0.07-0.65-0.07c-1.95,0-3.54,1.59-3.54,3.54
				C455.66,477.75,457.25,479.34,459.2,479.34z"/>
			<path class="st1" d="M531.65,566.47c-1.54,0-2.83,0.99-3.32,2.36h-55.8l-14.02-25l0.87-3.92c1.87-0.1,3.36-1.63,3.36-3.52
				c0-1.95-1.59-3.54-3.54-3.54s-3.54,1.59-3.54,3.54c0,1.17,0.58,2.2,1.45,2.85l-0.34,1.52l-16.67-29.72l14.18-24.42h8.88
				l10.48-17.63c0.3,0.08,0.61,0.14,0.94,0.14c1.95,0,3.54-1.59,3.54-3.54s-1.59-3.54-3.54-3.54s-3.54,1.59-3.54,3.54
				c0,0.76,0.25,1.46,0.66,2.04l-9.88,16.62h-8.89L437.39,511l33.76,60.19h57.18c0.49,1.37,1.79,2.36,3.32,2.36
				c1.95,0,3.54-1.59,3.54-3.54S533.6,566.47,531.65,566.47z"/>
			<path class="st1" d="M523.71,455.54c1.54,0,2.83-0.99,3.32-2.36h167.41l1.49,2.89c-0.6,0.63-0.97,1.48-0.97,2.42
				c0,1.95,1.59,3.54,3.54,3.54s3.54-1.59,3.54-3.54s-1.59-3.54-3.54-3.54c-0.16,0-0.32,0.03-0.47,0.05l-0.94-1.82h109.27
				L831,495.61c-0.52,0.62-0.85,1.41-0.85,2.28c0,1.95,1.59,3.54,3.54,3.54s3.54-1.59,3.54-3.54s-1.59-3.54-3.54-3.54
				c-0.22,0-0.44,0.03-0.65,0.07l-25.32-43.59H527.03c-0.49-1.37-1.79-2.36-3.32-2.36c-1.95,0-3.54,1.59-3.54,3.54
				S521.76,455.54,523.71,455.54z"/>
		</g>
	</g>
</g>
</svg>
