<?xml version="1.0" encoding="utf-8"?>
<!-- Generator: Adobe Illustrator 24.1.2, SVG Export Plug-In . SVG Version: 6.00 Build 0)  -->
<svg version="1.1" id="Layer_1" xmlns="http://www.w3.org/2000/svg" xmlns:xlink="http://www.w3.org/1999/xlink" x="0px" y="0px"
	 viewBox="0 0 1280 1024" style="enable-background:new 0 0 1280 1024;" xml:space="preserve">
<style type="text/css">
	.st0{fill:#020413;stroke:#0092FF;stroke-width:2;stroke-miterlimit:10;}
	.st1{fill:none;stroke:#8E00FF;stroke-width:2.0534;stroke-miterlimit:10;}
	.st2{fill:#8E00FF;}
	.st3{fill:none;stroke:#8E00FF;stroke-width:2.0823;stroke-miterlimit:10;}
	.st4{fill:none;stroke:#FF00FF;stroke-width:2.0534;stroke-miterlimit:10;}
	.st5{fill:none;stroke:#FFFFFF;stroke-width:1.0267;stroke-miterlimit:10;}
	.st6{fill:#FF00FF;}
	
		.st7{opacity:0.36;fill:none;stroke:#FFFFFF;stroke-width:1.0267;stroke-linecap:round;stroke-miterlimit:10;stroke-dasharray:12.3207;}
	.st8{fill:#7100FF;}
	.st9{fill:#FFFFFF;}
	.st10{fill:none;stroke:#FFFFFF;stroke-width:1.0267;stroke-linecap:round;stroke-miterlimit:10;}
	.st11{fill:#0092FF;}
</style>
<polyline class="st0" points="556.15,286.6 537.67,256.6 420.47,256.6 404.36,286.6 "/>
<polygon class="st0" points="562.87,286.35 547.6,262 541,262 557.15,286.6 "/>
<g>
	<polyline class="st1" points="953.22,390.52 1009.52,444.59 1192.72,444.59 	"/>
	<line class="st1" x1="953.22" y1="503.25" x2="1192.72" y2="503.25"/>
	<polyline class="st1" points="1121.94,503.25 1081.9,578.57 953.22,578.57 	"/>
	<polyline class="st1" points="1192.72,640.82 1061.64,640.82 1025.36,676.34 953.22,676.34 	"/>
	<polyline class="st1" points="1134.88,642.05 1109.79,616.95 953.22,616.95 	"/>
	<polyline class="st1" points="1130.09,444.59 1116.4,462.97 985.66,462.97 975.39,468.83 953.22,468.83 	"/>
	<polyline class="st1" points="1101.92,540.91 1146.51,540.91 1167.73,503.25 	"/>
	<circle class="st2" cx="1009.52" cy="444.59" r="3.21"/>
	<circle class="st2" cx="985.66" cy="462.97" r="3.21"/>
	<circle class="st2" cx="974.02" cy="468.83" r="3.21"/>
	<circle class="st2" cx="1116.4" cy="462.97" r="3.21"/>
	<circle class="st2" cx="1121.94" cy="503.25" r="3.21"/>
	<circle class="st2" cx="1101.92" cy="540.87" r="3.21"/>
	<circle class="st2" cx="1081.9" cy="578.57" r="3.21"/>
	<circle class="st2" cx="1109.79" cy="616.95" r="3.21"/>
	<circle class="st2" cx="1061.3" cy="642.05" r="3.21"/>
	<circle class="st2" cx="1025.02" cy="676.34" r="3.21"/>
	<circle class="st2" cx="1133.8" cy="640.82" r="3.21"/>
	<circle class="st2" cx="1167.73" cy="503.25" r="3.21"/>
</g>
<g>
	<polyline class="st1" points="953.22,390.52 1009.52,444.59 1192.72,444.59 	"/>
	<line class="st1" x1="953.22" y1="503.25" x2="1192.72" y2="503.25"/>
	<polyline class="st1" points="1121.94,503.25 1081.9,578.57 953.22,578.57 	"/>
	<polyline class="st1" points="1192.72,640.82 1061.64,640.82 1025.36,676.34 953.22,676.34 	"/>
	<polyline class="st1" points="1134.88,642.05 1109.79,616.95 953.22,616.95 	"/>
	<polyline class="st1" points="1130.09,444.59 1116.4,462.97 985.66,462.97 975.39,468.83 953.22,468.83 	"/>
	<polyline class="st1" points="1101.92,540.91 1146.51,540.91 1167.73,503.25 	"/>
	<circle class="st2" cx="1009.52" cy="444.59" r="3.21"/>
	<circle class="st2" cx="985.66" cy="462.97" r="3.21"/>
	<circle class="st2" cx="974.02" cy="468.83" r="3.21"/>
	<circle class="st2" cx="1116.4" cy="462.97" r="3.21"/>
	<circle class="st2" cx="1121.94" cy="503.25" r="3.21"/>
	<circle class="st2" cx="1101.92" cy="540.87" r="3.21"/>
	<circle class="st2" cx="1081.9" cy="578.57" r="3.21"/>
	<circle class="st2" cx="1109.79" cy="616.95" r="3.21"/>
	<circle class="st2" cx="1061.3" cy="642.05" r="3.21"/>
	<circle class="st2" cx="1025.02" cy="676.34" r="3.21"/>
	<circle class="st2" cx="1133.8" cy="640.82" r="3.21"/>
	<circle class="st2" cx="1167.73" cy="503.25" r="3.21"/>
</g>
<g>
	<polyline class="st3" points="333.62,390.52 275.73,444.59 87.35,444.59 	"/>
	<line class="st3" x1="348" y1="503.25" x2="87.35" y2="503.25"/>
	<polyline class="st3" points="160.13,503.25 201.3,578.57 351,578.57 	"/>
	<polyline class="st3" points="87.35,640.82 222.14,640.82 259.44,676.34 333.62,676.34 	"/>
	<polyline class="st3" points="146.83,642.05 172.63,616.95 333.62,616.95 	"/>
	<polyline class="st3" points="151.75,444.59 165.83,462.97 300.26,462.97 310.82,468.83 333.62,468.83 	"/>
	<polyline class="st3" points="180.71,540.91 134.86,540.91 113.04,503.25 	"/>
	<ellipse class="st2" cx="275.73" cy="444.59" rx="3.3" ry="3.21"/>
	<ellipse class="st2" cx="300.26" cy="462.97" rx="3.3" ry="3.21"/>
	<ellipse class="st2" cx="312.23" cy="468.83" rx="3.3" ry="3.21"/>
	<ellipse class="st2" cx="165.83" cy="462.97" rx="3.3" ry="3.21"/>
	<ellipse class="st2" cx="160.13" cy="503.25" rx="3.3" ry="3.21"/>
	<ellipse class="st2" cx="180.71" cy="540.87" rx="3.3" ry="3.21"/>
	<ellipse class="st2" cx="201.3" cy="578.57" rx="3.3" ry="3.21"/>
	<ellipse class="st2" cx="172.63" cy="616.95" rx="3.3" ry="3.21"/>
	<ellipse class="st2" cx="222.49" cy="642.05" rx="3.3" ry="3.21"/>
	<ellipse class="st2" cx="259.79" cy="676.34" rx="3.3" ry="3.21"/>
	<ellipse class="st2" cx="147.93" cy="640.82" rx="3.3" ry="3.21"/>
	<ellipse class="st2" cx="113.04" cy="503.25" rx="3.3" ry="3.21"/>
</g>
<polygon class="st0" points="953.22,410.75 953.22,308.28 926.8,286.6 382.15,286.6 333.62,335.63 333.62,498.39 350.76,492.12
	350.76,501 333.62,507.28 333.62,513.81 350.76,507.53 350.76,516.42 333.62,522.69 333.62,529.23 350.76,522.95 350.76,531.83
	333.62,538.11 333.62,544.64 350.76,538.37 350.76,547.25 333.62,553.53 333.62,560.06 350.76,553.78 350.76,562.67 333.62,568.94
	333.62,575.48 350.76,569.2 350.76,578.08 333.62,584.36 333.62,590.89 350.76,584.62 350.76,593.5 333.62,599.78 333.62,606.31
	350.76,600.03 350.76,608.92 333.62,615.19 333.62,621.73 350.76,615.45 350.76,624.33 333.62,630.61 333.62,637.15 350.76,630.87
	350.76,639.75 333.62,646.03 333.62,652.56 350.76,646.28 350.76,655.17 333.62,661.44 333.62,667.98 350.76,661.7 350.76,670.58
	333.62,676.86 333.62,683.4 350.76,677.12 350.76,686 333.62,692.28 333.62,698.81 350.76,692.53 350.76,701.42 333.62,707.69
	333.62,714.23 350.76,707.95 350.76,716.83 333.62,723.11 333.62,773.08 904.69,773.08 953.22,725.07 953.22,635.46 944.13,638.79
	944.13,629.91 953.22,626.58 953.22,620.05 944.13,623.38 944.13,614.49 953.22,611.16 953.22,604.63 944.13,607.96 944.13,599.08
	953.22,595.75 953.22,589.21 944.13,592.54 944.13,583.66 953.22,580.33 953.22,573.8 944.13,577.13 944.13,568.24 953.22,564.91
	953.22,558.38 944.13,561.71 944.13,552.83 953.22,549.5 953.22,542.96 944.13,546.29 944.13,537.41 953.22,534.08 953.22,527.55
	944.13,530.88 944.13,521.99 953.22,518.66 953.22,512.13 944.13,515.46 944.13,506.58 953.22,503.25 953.22,496.71 944.13,500.04
	944.13,491.16 953.22,487.83 953.22,481.3 944.13,484.63 944.13,475.74 953.22,472.41 953.22,465.88 944.13,469.21 944.13,460.33
	953.22,457 953.22,450.46 944.13,453.79 944.13,444.91 953.22,441.58 953.22,435.05 944.13,438.38 944.13,429.49 953.22,426.16
	953.22,419.63 944.13,422.96 944.13,414.08 "/>
<polygon class="st5" points="344.92,761.97 344.92,731.17 360.04,725.01 360.04,482.7 344.92,487.83 344.92,343.07 390.85,296.86
	917.21,296.86 943.22,317.18 943.22,405.7 932.96,413.91 932.96,651.08 942.2,645.95 942.2,720.9 900.1,761.97 700.92,761.97
	694.76,751.7 611.59,751.7 603.14,761.97 "/>


<line class="st7" x1="379.87" y1="622.33" x2="914.04" y2="622.33"/>

<polyline class="st10" points="926.8,640.82 685.52,640.82 657.79,683.42 657.79,751.7 "/>
<polygon class="st9" points="657.79,741.3 627.44,741.3 634.84,736.21 657.79,736.21 "/>
<polygon class="st9" points="657.79,732.63 627.44,732.63 634.84,727.55 657.79,727.55 "/>
<polygon class="st9" points="657.79,723.97 627.44,723.97 634.84,718.89 657.79,718.89 "/>
<polygon class="st9" points="657.79,715.31 627.44,715.31 634.84,710.22 657.79,710.22 "/>
<g>
	<rect x="424.73" y="279.19" class="st8" width="3.42" height="5.82"/>
	<rect x="432.26" y="272" class="st8" width="3.42" height="13.01"/>
	<rect x="439.79" y="261.73" class="st8" width="3.42" height="23.27"/>
	<rect x="447.32" y="272" class="st8" width="3.42" height="13.01"/>
	<rect x="454.85" y="268.92" class="st8" width="3.42" height="16.09"/>
	<rect x="462.37" y="279.19" class="st8" width="3.42" height="5.82"/>
	<rect x="469.9" y="270.97" class="st8" width="3.42" height="14.03"/>
	<rect x="477.43" y="274.05" class="st8" width="3.42" height="10.95"/>
	<rect x="484.96" y="268.92" class="st8" width="3.42" height="16.09"/>
	<rect x="492.49" y="263.79" class="st8" width="3.42" height="21.22"/>
	<rect x="500.02" y="273.03" class="st8" width="3.42" height="11.98"/>
	<rect x="507.55" y="273.03" class="st8" width="3.42" height="11.98"/>
	<rect x="515.08" y="273.03" class="st8" width="3.42" height="11.98"/>
	<rect x="522.61" y="268.92" class="st8" width="3.42" height="16.09"/>
	<rect x="530.14" y="268.92" class="st8" width="3.42" height="16.09"/>
</g>
<polygon class="st11" points="469.9,773.08 399.89,773.08 395.79,755.93 465.8,755.93 "/>
</svg>
