<?xml version="1.0" encoding="utf-8"?>
<!-- Generator: Adobe Illustrator 24.1.2, SVG Export Plug-In . SVG Version: 6.00 Build 0)  -->
<svg version="1.1" id="Layer_1" xmlns="http://www.w3.org/2000/svg" xmlns:xlink="http://www.w3.org/1999/xlink" x="0px" y="0px"
	 viewBox="0 0 1280 1024" style="enable-background:new 0 0 1280 1024;" xml:space="preserve">
<style type="text/css">
	.st0{fill:url(#SVGID_1_);}
</style>
<linearGradient id="SVGID_1_" gradientUnits="userSpaceOnUse" x1="640.0336" y1="466.3183" x2="640.0336" y2="556.8749">
	<stop  offset="0" style="stop-color:#0000FF"/>
	<stop  offset="1" style="stop-color:#FF00FF"/>
</linearGradient>
<path class="st0" d="M683.83,499.63h48.97v-2h-48.97c-1.53,0-2.96,0.76-3.81,2.03l-5.37,7.96c-0.04,0-0.09-0.01-0.13-0.01
	l-1.31-2.26c-0.29-0.51-0.68-0.94-1.13-1.3c0.45-0.35,0.83-0.79,1.13-1.3l7.09-12.27c0.82-1.42,0.82-3.18,0-4.59l-7.09-12.27
	c-0.82-1.42-2.34-2.3-3.98-2.3h-14.18c-1.64,0-3.16,0.88-3.98,2.3l-7.09,12.27c-0.82,1.42-0.82,3.18,0,4.59l7.09,12.27
	c0.29,0.51,0.68,0.94,1.13,1.3c-0.45,0.35-0.83,0.79-1.13,1.3l-7.09,12.27c-0.3,0.52-0.48,1.08-0.57,1.65
	c-0.55-0.23-1.15-0.35-1.76-0.35h-6.01l-4.25-6.12c0.12-0.26,0.19-0.54,0.19-0.85c0-1.1-0.9-2-2-2c-1.1,0-2,0.89-2,2
	c0,1.1,0.9,2,2,2c0.05,0,0.11-0.01,0.16-0.02l3.46,4.98h-5.73c-1.64,0-3.16,0.88-3.98,2.3l-7.09,12.27c-0.24,0.41-0.4,0.85-0.5,1.3
	h-26.16c-0.1-0.45-0.26-0.89-0.5-1.3l-2.83-4.89c0.17-0.29,0.27-0.63,0.27-0.99c0-0.35-0.1-0.67-0.25-0.95l6.95-11.44
	c0.47-0.77,1.32-1.25,2.22-1.25h19.05c1.68,0,3.22-0.91,4.03-2.39l7.08-12.92c0.46-0.83,1.33-1.35,2.28-1.35h3.81
	c0.35,0.6,0.98,1,1.72,1c1.1,0,2-0.89,2-2c0-1.1-0.9-2-2-2c-0.74,0-1.38,0.4-1.72,1h-3.81c-1.68,0-3.22,0.91-4.03,2.39l-7.08,12.92
	c-0.46,0.83-1.33,1.35-2.28,1.35h-19.05c-1.6,0-3.1,0.85-3.93,2.21l-6.95,11.44c-0.01,0-0.03,0-0.04,0l-2.54-4.39
	c-0.29-0.51-0.68-0.94-1.13-1.3c0.45-0.35,0.83-0.79,1.13-1.3l7.09-12.27c0.29-0.49,0.47-1.03,0.55-1.58
	c0.5,0.18,1.02,0.28,1.56,0.28h14.18c1.64,0,3.16-0.88,3.98-2.3l7.09-12.27c0.24-0.41,0.4-0.85,0.5-1.3h18.14
	c1.6,0,3.06-0.81,3.9-2.17l10.89-17.47c0.48-0.77,1.3-1.22,2.21-1.22h19.57c0.94,0,1.8,0.51,2.26,1.32l8.27,14.66
	c0.81,1.44,2.35,2.34,4,2.34h16.74c0.69,0,1.35,0.27,1.84,0.76l3.06,3.06c0.87,0.87,2.02,1.35,3.25,1.35h21.01v-2h-21.01
	c-0.69,0-1.35-0.27-1.84-0.76l-3.06-3.06c-0.87-0.87-2.02-1.34-3.25-1.34h-16.74c-0.94,0-1.8-0.51-2.26-1.32l-8.27-14.66
	c-0.81-1.44-2.35-2.34-4-2.34h-19.57c-1.6,0-3.06,0.81-3.9,2.17l-10.89,17.47c-0.48,0.77-1.3,1.22-2.21,1.22h-18.14
	c-0.1-0.45-0.26-0.89-0.5-1.3L615,483.1c0.09-0.01,0.17-0.03,0.26-0.03h10.26c0.35,0.59,0.98,1,1.72,1c1.1,0,2-0.89,2-2
	c0-1.1-0.9-2-2-2c-0.74,0-1.38,0.4-1.72,1h-10.26c-0.45,0-0.9,0.08-1.32,0.2l-4.42-7.66c-0.82-1.42-2.34-2.3-3.98-2.3h-14.18
	c-1.64,0-3.16,0.88-3.98,2.3l-2.2,3.8c-0.47,0.15-0.86,0.47-1.11,0.89h-36.81v2h36.25l-3.22,5.58c-0.29,0.49-0.47,1.03-0.55,1.58
	c-0.5-0.18-1.02-0.28-1.56-0.28H564c-1.64,0-3.16,0.88-3.98,2.3l-7.09,12.27c-0.82,1.42-0.82,3.18,0,4.59l7.09,12.27
	c0.29,0.51,0.68,0.94,1.13,1.3c-0.45,0.35-0.83,0.79-1.13,1.3l-7.09,12.27c-0.82,1.42-0.82,3.18,0,4.59l3.9,6.75h-9.56v2h10.58
	v-0.23l2.17,3.75c0.82,1.42,2.34,2.3,3.98,2.3h3.84l1.35,2.11c0.85,1.33,2.3,2.12,3.87,2.12h8.37c1.69,0,3.24-0.93,4.05-2.41
	l9.54-17.68h7.53l2.81,4.61c0.83,1.36,2.33,2.21,3.93,2.21h2.25c0.35,0.59,0.98,1,1.72,1c1.1,0,2-0.89,2-2c0-1.1-0.9-2-2-2
	c-0.74,0-1.38,0.4-1.72,1h-2.25c-0.9,0-1.75-0.48-2.22-1.25l-2.17-3.57h11.02c0.1,0.45,0.26,0.89,0.5,1.3l7.09,12.27
	c0.82,1.42,2.34,2.3,3.98,2.3h14.18c1.64,0,3.16-0.88,3.98-2.3l3.65-6.31l5.74,3.97c0.79,0.6,1.78,0.93,2.77,0.93h14.68
	c1.62,0,3.13-0.86,3.95-2.25l2.37-4h2.1c1.63,0,3.14-0.87,3.97-2.27l6.93-11.81h16.19c1.55,0,2.98-0.77,3.84-2.06l8.2-12.42
	c0.48-0.73,1.29-1.17,2.17-1.17h10.11v-2h-10.11c-1.55,0-2.98,0.77-3.84,2.06l-8.2,12.42c-0.48,0.73-1.29,1.17-2.17,1.17h-19.35
	c-1.62,0-3.13,0.86-3.95,2.25l-9.98,16.81c-0.46,0.78-1.32,1.27-2.23,1.27h-14.68c-0.56,0-1.12-0.19-1.6-0.55l-5.91-4.08l2.44-4.23
	c0.3-0.52,0.48-1.08,0.57-1.65c0.55,0.23,1.15,0.35,1.76,0.35h14.18c1.64,0,3.16-0.88,3.98-2.3l7.09-12.27
	c0.24-0.41,0.4-0.85,0.5-1.3h12.73c0.35,0.59,0.98,1,1.72,1c1.1,0,2-0.89,2-2c0-1.1-0.9-2-2-2c-0.74,0-1.38,0.4-1.72,1H680.8
	c-0.1-0.45-0.26-0.89-0.5-1.3l-4.06-7.02c0.17-0.29,0.27-0.63,0.27-0.99c0-0.31-0.08-0.61-0.21-0.87l5.37-7.96
	C682.16,500.06,682.97,499.63,683.83,499.63z M613.25,484.06l1.63,2.82c0.46,0.8,0.46,1.79,0,2.6l-7.09,12.27
	c-0.46,0.8-1.32,1.3-2.25,1.3h-14.18c-0.72,0-1.39-0.31-1.88-0.82c-0.07-0.16-0.15-0.32-0.24-0.48l-1.05-1.82
	c0.08-0.09,0.15-0.2,0.22-0.3h12.67c1.59,0,3.09-0.84,3.92-2.19l8.04-13.13C613.11,484.21,613.18,484.14,613.25,484.06z
	 M582.02,486.88l3.26-5.65c0.16,0.04,0.33,0.07,0.51,0.07c1.1,0,2-0.89,2-2c0-0.55-0.22-1.05-0.58-1.41l1.9-3.29
	c0.46-0.8,1.32-1.3,2.25-1.3h14.18c0.92,0,1.79,0.5,2.25,1.3l4.41,7.64c-0.33,0.29-0.62,0.63-0.86,1.01l-8.04,13.13
	c-0.47,0.77-1.32,1.24-2.21,1.24h-12.67c-0.35-0.6-0.98-1-1.72-1c-0.13,0-0.26,0.01-0.38,0.04l-4.15-7.19
	c-0.1-0.18-0.22-0.35-0.35-0.51C581.59,488.28,581.66,487.52,582.02,486.88z M554.66,505.35c-0.46-0.8-0.46-1.79,0-2.6l7.09-12.27
	c0.46-0.8,1.32-1.3,2.25-1.3h14.18c0.72,0,1.39,0.31,1.88,0.82c0.07,0.16,0.15,0.32,0.24,0.48l4.45,7.71
	c-0.03,0.14-0.05,0.29-0.05,0.44c0,0.9,0.59,1.64,1.4,1.9l1.28,2.22c0.1,0.18,0.22,0.35,0.35,0.51c0.22,0.69,0.16,1.44-0.21,2.08
	l-7.09,12.27c-0.46,0.8-1.32,1.3-2.25,1.3H564c-0.92,0-1.79-0.5-2.25-1.3L554.66,505.35z M561.75,522.21c0.46-0.8,1.32-1.3,2.25-1.3
	h1.59l-3.54,6.65c-0.45,0.85-1.33,1.38-2.29,1.38h-1.9L561.75,522.21z M564,550.65c-0.92,0-1.79-0.5-2.25-1.3l-7.09-12.27
	c-0.46-0.8-0.46-1.8,0-2.6l2.05-3.54h3.05c1.7,0,3.26-0.93,4.06-2.44l4.04-7.59h10.32c0.92,0,1.79,0.5,2.25,1.3l2.54,4.4
	c-0.17,0.29-0.27,0.63-0.27,0.99c0,1.1,0.9,2,2,2c0,0,0,0,0,0l2.82,4.88c0.46,0.8,0.46,1.8,0,2.6l-7.09,12.27
	c-0.46,0.8-1.32,1.3-2.25,1.3H564z M583.71,553.51c-0.45,0.84-1.33,1.36-2.29,1.36h-8.37c-0.89,0-1.71-0.45-2.19-1.2l-0.66-1.03
	h7.97c1.64,0,3.16-0.88,3.98-2.3l7.09-12.27c0.24-0.41,0.4-0.85,0.5-1.3h3L583.71,553.51z M686.4,529.87
	c0.46-0.78,1.32-1.27,2.23-1.27h0.84l-6.33,10.8c-0.46,0.79-1.32,1.28-2.24,1.28h-0.92L686.4,529.87z M645.71,489.48
	c-0.46-0.8-0.46-1.79,0-2.6l7.09-12.27c0.46-0.8,1.32-1.3,2.25-1.3h14.18c0.92,0,1.79,0.5,2.25,1.3l7.09,12.27
	c0.46,0.8,0.46,1.79,0,2.6l-7.09,12.27c-0.46,0.8-1.32,1.3-2.25,1.3h-14.18c-0.92,0-1.79-0.5-2.25-1.3L645.71,489.48z
	 M650.99,537.08l-7.09,12.27c-0.46,0.8-1.32,1.3-2.25,1.3h-14.18c-0.92,0-1.79-0.5-2.25-1.3l-7.09-12.27c-0.46-0.8-0.46-1.8,0-2.6
	l7.09-12.27c0.46-0.8,1.32-1.3,2.25-1.3h14.18c0.92,0,1.79,0.5,2.25,1.3l7.09,12.27C651.45,535.29,651.45,536.28,650.99,537.08z
	 M678.57,518.62c0.46,0.8,0.46,1.79,0,2.6l-7.09,12.27c-0.46,0.8-1.32,1.3-2.25,1.3h-14.18c-0.92,0-1.79-0.5-2.25-1.3l-7.09-12.27
	c-0.46-0.8-0.46-1.79,0-2.6l7.09-12.27c0.46-0.8,1.32-1.3,2.25-1.3h14.18c0.92,0,1.79,0.5,2.25,1.3l1.31,2.27
	c-0.17,0.29-0.27,0.63-0.27,0.99c0,1.1,0.9,2,2,2L678.57,518.62z"/>
</svg>
