<?xml version="1.0" encoding="utf-8"?>
<!-- Generator: Adobe Illustrator 24.1.2, SVG Export Plug-In . SVG Version: 6.00 Build 0)  -->
<svg version="1.1" id="Layer_1" xmlns="http://www.w3.org/2000/svg" xmlns:xlink="http://www.w3.org/1999/xlink" x="0px" y="0px"
	 viewBox="0 0 1280 1024" style="enable-background:new 0 0 1280 1024;" xml:space="preserve">
<style type="text/css">
	.st0{fill:url(#SVGID_1_);}
</style>
<linearGradient id="SVGID_1_" gradientUnits="userSpaceOnUse" x1="640.0336" y1="501.9645" x2="640.0336" y2="592.5211">
	<stop  offset="0" style="stop-color:#0000FF"/>
	<stop  offset="1" style="stop-color:#FF00FF"/>
</linearGradient>
<path class="st0" d="M552.98,515.71c2.79,0,5.41-1.08,7.38-3.05l0.95-0.95c1.59-1.59,3.71-2.47,5.96-2.47h146.36
	c2.25,0,4.37,0.88,5.96,2.47l1.19,1.19c1.97,1.97,4.59,3.05,7.38,3.05h126.88v-2H728.16c-2.25,0-4.37-0.88-5.96-2.47l-1.19-1.19
	c-1.97-1.97-4.59-3.05-7.38-3.05H567.26c-2.79,0-5.41,1.08-7.38,3.05l-0.95,0.95c-1.59,1.59-3.71,2.47-5.96,2.47H425.03v2H552.98z"
	/>
</svg>
