<?xml version="1.0" encoding="utf-8"?>
<!-- Generator: Adobe Illustrator 24.1.2, SVG Export Plug-In . SVG Version: 6.00 Build 0)  -->
<svg version="1.1" id="Layer_1" xmlns="http://www.w3.org/2000/svg" xmlns:xlink="http://www.w3.org/1999/xlink" x="0px" y="0px"
	 viewBox="0 0 1280 1024" style="enable-background:new 0 0 1280 1024;" xml:space="preserve">
<style type="text/css">
	.st0{fill:url(#SVGID_1_);}
</style>
<linearGradient id="SVGID_1_" gradientUnits="userSpaceOnUse" x1="640.0336" y1="466.3183" x2="640.0336" y2="556.8749">
	<stop  offset="0" style="stop-color:#0000FF"/>
	<stop  offset="1" style="stop-color:#FF00FF"/>
</linearGradient>
<path class="st0" d="M723.66,545.02l4.01-6.94c0.82-1.42,0.82-3.18,0-4.59l-7.09-12.27c-0.29-0.51-0.68-0.94-1.13-1.3
	c0.45-0.35,0.83-0.79,1.13-1.3l7.09-12.27c0.82-1.42,0.82-3.18,0-4.59l-7.09-12.27c-0.82-1.42-2.34-2.3-3.98-2.3h-14.18
	c-0.54,0-1.07,0.1-1.56,0.28c-0.09-0.55-0.27-1.09-0.55-1.58l-3.37-5.83h35.32v-2h-35.74c-0.27-0.47-0.73-0.82-1.28-0.95l-2.02-3.5
	c-0.82-1.42-2.34-2.3-3.98-2.3h-14.18c-1.64,0-3.16,0.88-3.98,2.3l-4.42,7.66c-0.42-0.13-0.87-0.2-1.32-0.2h-10.26
	c-0.35-0.59-0.98-1-1.72-1c-1.1,0-2,0.89-2,2c0,1.1,0.9,2,2,2c0.74,0,1.38-0.4,1.72-1h10.26c0.09,0,0.18,0.03,0.26,0.03l-1.61,2.79
	c-0.24,0.41-0.4,0.85-0.5,1.3h-18.14c-0.9,0-1.73-0.46-2.2-1.22l-10.89-17.47c-0.84-1.36-2.3-2.17-3.9-2.17h-19.57
	c-1.66,0-3.19,0.9-4,2.34l-8.27,14.66c-0.46,0.81-1.33,1.32-2.26,1.32h-16.74c-1.23,0-2.38,0.48-3.25,1.34l-3.06,3.06
	c-0.49,0.49-1.14,0.76-1.84,0.76h-21.01v2h21.01c1.23,0,2.38-0.48,3.25-1.35l3.06-3.06c0.48-0.48,1.15-0.76,1.84-0.76h16.74
	c1.66,0,3.19-0.9,4-2.34l8.27-14.66c0.46-0.81,1.33-1.32,2.26-1.32h19.57c0.9,0,1.73,0.46,2.21,1.22l10.89,17.47
	c0.84,1.36,2.3,2.17,3.9,2.17h18.14c0.1,0.45,0.26,0.89,0.5,1.3l7.09,12.27c0.82,1.42,2.34,2.3,3.98,2.3h14.18
	c0.54,0,1.07-0.1,1.56-0.28c0.09,0.55,0.27,1.09,0.55,1.58l7.09,12.27c0.29,0.51,0.68,0.94,1.13,1.3c-0.45,0.35-0.83,0.79-1.13,1.3
	l-2.54,4.39c-0.01,0-0.03,0-0.04,0l-6.94-11.44c-0.83-1.36-2.33-2.21-3.93-2.21h-19.04c-0.95,0-1.82-0.52-2.28-1.35l-7.08-12.92
	c-0.81-1.47-2.35-2.39-4.03-2.39h-3.81c-0.35-0.59-0.98-1-1.72-1c-1.1,0-2,0.89-2,2c0,1.1,0.9,2,2,2c0.74,0,1.38-0.4,1.72-1h3.81
	c0.95,0,1.82,0.52,2.28,1.35l7.08,12.92c0.81,1.47,2.35,2.39,4.03,2.39h19.04c0.9,0,1.75,0.48,2.22,1.25l6.95,11.45
	c-0.16,0.28-0.25,0.61-0.25,0.95c0,0.36,0.1,0.7,0.27,0.99l-2.83,4.89c-0.24,0.41-0.4,0.85-0.5,1.3h-26.16
	c-0.1-0.45-0.26-0.89-0.5-1.3l-7.09-12.27c-0.82-1.42-2.34-2.3-3.98-2.3h-5.73l3.46-4.98c0.05,0,0.11,0.02,0.16,0.02
	c1.1,0,2-0.89,2-2c0-1.1-0.9-2-2-2c-1.1,0-2,0.89-2,2c0,0.3,0.07,0.59,0.19,0.85l-4.25,6.12h-6.01c-0.61,0-1.21,0.12-1.76,0.35
	c-0.08-0.57-0.27-1.14-0.57-1.65l-7.09-12.27c-0.29-0.51-0.68-0.94-1.13-1.3c0.45-0.35,0.83-0.79,1.13-1.3l7.09-12.27
	c0.82-1.42,0.82-3.18,0-4.59l-7.09-12.27c-0.82-1.42-2.34-2.3-3.98-2.3h-14.18c-1.64,0-3.16,0.88-3.98,2.3l-7.09,12.27
	c-0.82,1.42-0.82,3.18,0,4.59l7.09,12.27c0.29,0.51,0.68,0.94,1.13,1.3c-0.45,0.35-0.84,0.79-1.13,1.3l-1.31,2.26
	c-0.05,0-0.09,0.01-0.13,0.01l-5.37-7.96c-0.86-1.27-2.28-2.03-3.81-2.03H547.8v2h48.97c0.87,0,1.67,0.43,2.15,1.14l5.37,7.96
	c-0.13,0.26-0.21,0.56-0.21,0.87c0,0.36,0.1,0.7,0.27,0.99l-4.06,7.02c-0.24,0.41-0.4,0.85-0.5,1.3h-12.73c-0.35-0.6-0.98-1-1.72-1
	c-1.1,0-2,0.89-2,2c0,1.1,0.9,2,2,2c0.74,0,1.38-0.4,1.72-1h12.73c0.1,0.45,0.26,0.89,0.5,1.3l7.09,12.27
	c0.82,1.42,2.34,2.3,3.98,2.3h14.18c0.61,0,1.21-0.12,1.76-0.35c0.08,0.57,0.27,1.14,0.57,1.65l2.44,4.23l-5.94,4.11
	c-0.45,0.34-1,0.52-1.56,0.52h-14.68c-0.91,0-1.77-0.49-2.23-1.27l-9.98-16.81c-0.82-1.39-2.34-2.25-3.95-2.25h-19.35
	c-0.88,0-1.69-0.44-2.17-1.17l-8.2-12.42c-0.85-1.29-2.29-2.06-3.84-2.06H548.3v2h10.11c0.88,0,1.69,0.44,2.17,1.17l8.2,12.42
	c0.85,1.29,2.29,2.06,3.84,2.06h16.19l6.93,11.81c0.82,1.4,2.34,2.27,3.97,2.27h2.1l2.37,4c0.82,1.39,2.34,2.25,3.95,2.25h14.68
	c0.99,0,1.97-0.33,2.73-0.9l5.78-3.99l3.65,6.31c0.82,1.42,2.34,2.3,3.98,2.3h14.18c1.64,0,3.16-0.88,3.98-2.3l7.09-12.27
	c0.24-0.41,0.4-0.85,0.5-1.3h11.02l-2.17,3.57c-0.47,0.77-1.32,1.25-2.22,1.25h-2.25c-0.35-0.6-0.98-1-1.72-1c-1.1,0-2,0.89-2,2
	c0,1.1,0.9,2,2,2c0.74,0,1.38-0.4,1.72-1h2.25c1.59,0,3.1-0.85,3.93-2.21l2.81-4.61h7.53l9.54,17.68c0.8,1.49,2.35,2.41,4.05,2.41
	h8.37c1.58,0,3.02-0.79,3.87-2.12l1.35-2.11h3.84c1.64,0,3.16-0.88,3.98-2.3l1.92-3.33h9.76v-2H723.66z M599.7,540.69
	c-0.92,0-1.78-0.49-2.24-1.28l-6.33-10.8h0.84c0.91,0,1.77,0.49,2.23,1.27l6.42,10.81H599.7z M602.03,489.48
	c-0.46-0.8-0.46-1.79,0-2.6l7.09-12.27c0.46-0.8,1.32-1.3,2.25-1.3h14.18c0.92,0,1.79,0.5,2.25,1.3l7.09,12.27
	c0.46,0.8,0.46,1.79,0,2.6l-7.09,12.27c-0.46,0.8-1.32,1.3-2.25,1.3h-14.18c-0.92,0-1.79-0.5-2.25-1.3L602.03,489.48z M627.8,533.49
	c-0.46,0.8-1.32,1.3-2.25,1.3h-14.18c-0.92,0-1.79-0.5-2.25-1.3l-7.09-12.27c-0.46-0.8-0.46-1.79,0-2.6l4.05-7.01c0,0,0,0,0,0
	c1.1,0,2-0.89,2-2c0-0.36-0.1-0.7-0.27-0.99l1.31-2.27c0.46-0.8,1.32-1.3,2.25-1.3h14.18c0.92,0,1.79,0.5,2.25,1.3l7.09,12.27
	c0.46,0.8,0.46,1.79,0,2.6L627.8,533.49z M662.47,537.08l-7.09,12.27c-0.46,0.8-1.32,1.3-2.25,1.3h-14.18c-0.92,0-1.79-0.5-2.25-1.3
	l-7.09-12.27c-0.46-0.8-0.46-1.8,0-2.6l7.09-12.27c0.46-0.8,1.32-1.3,2.25-1.3h14.18c0.92,0,1.79,0.5,2.25,1.3l7.09,12.27
	C662.93,535.29,662.93,536.28,662.47,537.08z M722.74,528.94h-1.9c-0.96,0-1.84-0.53-2.29-1.38l-3.54-6.65h1.59
	c0.92,0,1.79,0.5,2.25,1.3L722.74,528.94z M691.35,501.75c-0.09,0.16-0.17,0.32-0.24,0.48c-0.48,0.51-1.16,0.82-1.88,0.82h-14.18
	c-0.92,0-1.79-0.5-2.25-1.3l-7.09-12.27c-0.46-0.8-0.46-1.79,0-2.6l1.63-2.82c0.07,0.08,0.14,0.15,0.2,0.24l8.04,13.13
	c0.83,1.35,2.33,2.19,3.92,2.19h12.67c0.06,0.11,0.14,0.21,0.22,0.3L691.35,501.75z M692.18,497.63h-12.67
	c-0.9,0-1.75-0.48-2.21-1.24l-8.04-13.13c-0.23-0.38-0.53-0.72-0.86-1.01l4.41-7.64c0.46-0.8,1.32-1.3,2.25-1.3h14.18
	c0.92,0,1.79,0.5,2.25,1.3l1.81,3.14c-0.31,0.35-0.5,0.81-0.5,1.31c0,1.1,0.9,2,2,2c0.13,0,0.26-0.01,0.39-0.04l3.39,5.86
	c0.37,0.64,0.43,1.4,0.21,2.08c-0.13,0.16-0.24,0.33-0.34,0.51l-4.16,7.19c-0.12-0.02-0.25-0.04-0.38-0.04
	C693.17,496.63,692.53,497.04,692.18,497.63z M693.09,505.35c-0.37-0.64-0.43-1.39-0.21-2.08c0.13-0.16,0.24-0.33,0.35-0.51
	l1.28-2.22c0.81-0.25,1.4-1,1.4-1.9c0-0.15-0.02-0.3-0.05-0.44l4.45-7.71c0.09-0.16,0.17-0.32,0.24-0.48
	c0.49-0.51,1.16-0.82,1.88-0.82h14.18c0.92,0,1.79,0.5,2.25,1.3l7.09,12.27c0.46,0.8,0.46,1.79,0,2.6l-7.09,12.27
	c-0.46,0.8-1.32,1.3-2.25,1.3h-14.18c-0.92,0-1.79-0.5-2.25-1.3L693.09,505.35z M709.73,553.68c-0.48,0.75-1.3,1.2-2.19,1.2h-8.37
	c-0.96,0-1.83-0.52-2.29-1.36l-9.02-16.73h2.99c0.1,0.45,0.26,0.89,0.5,1.3l7.09,12.27c0.82,1.42,2.34,2.3,3.98,2.3h7.97
	L709.73,553.68z M718.85,549.35c-0.46,0.8-1.32,1.3-2.25,1.3h-14.18c-0.92,0-1.79-0.5-2.25-1.3l-7.09-12.27
	c-0.46-0.8-0.46-1.8,0-2.6l2.82-4.88c0,0,0,0,0,0c1.1,0,2-0.89,2-2c0-0.36-0.1-0.7-0.27-0.99l2.54-4.4c0.46-0.8,1.32-1.3,2.25-1.3
	h10.32l4.04,7.59c0.8,1.5,2.35,2.44,4.06,2.44h3.05l2.05,3.54c0.46,0.8,0.46,1.8,0,2.6L718.85,549.35z"/>
</svg>
