<?xml version="1.0" encoding="utf-8"?>
<!-- Generator: Adobe Illustrator 24.1.2, SVG Export Plug-In . SVG Version: 6.00 Build 0)  -->
<svg version="1.1" id="Layer_1" xmlns="http://www.w3.org/2000/svg" xmlns:xlink="http://www.w3.org/1999/xlink" x="0px" y="0px"
	 viewBox="290 170 650 670" style="enable-background:new 0 0 1280 1024;" preserveAspectRatio="none" xml:space="preserve">
<style type="text/css">
	.st0{fill:none;stroke:#FF00FF;stroke-width:2.0534;stroke-miterlimit:10;}
	.st1{fill:#0000FF;}
	.st2{fill:#7100FF;}
	.st3{fill:none;stroke:url(#SVGID_1_);stroke-width:2.0288;stroke-linecap:round;stroke-miterlimit:10;stroke-dasharray:12.3207;}
	.st4{fill:none;stroke:url(#SVGID_2_);stroke-width:2.7515;stroke-miterlimit:10;}
	.st5{fill:none;stroke:url(#SVGID_3_);stroke-width:2.7515;stroke-miterlimit:10;}
	.st6{fill:none;stroke:url(#SVGID_4_);stroke-width:2.7515;stroke-miterlimit:10;}
	.st7{fill:url(#SVGID_5_);}
	.st8{fill:#FF00FF;}
</style>
<polygon class="st0" points="869.71,331.47 740.38,331.47 730.6,348.41 740.38,365.36 869.71,365.36 879.49,348.41 "/>
<polygon class="st0" points="869.71,727.07 740.38,727.07 730.6,744.01 740.38,760.95 869.71,760.95 879.49,744.01 "/>
<g>
	<g>
		<g>
			<path class="st1" d="M862.24,185.51l-6.16,0.14c-0.08,0-0.14-0.06-0.15-0.14c0-0.08,0.06-0.14,0.14-0.15c0,0,0,0,0.01,0
				L862.24,185.51z"/>
			<path class="st1" d="M844.49,185.85l-11.59,0.18c-0.29,0-0.54-0.23-0.54-0.52c0-0.29,0.23-0.54,0.52-0.54c0,0,0.01,0,0.02,0
				l11.59,0.18c0.19,0,0.35,0.16,0.34,0.35C844.83,185.7,844.67,185.85,844.49,185.85z"/>
			<path class="st1" d="M821.3,186.16l-11.59,0.12c-0.43,0-0.78-0.34-0.79-0.77c0-0.43,0.34-0.78,0.77-0.79c0,0,0.01,0,0.02,0
				l11.59,0.12c0.36,0,0.65,0.3,0.65,0.66C821.95,185.87,821.66,186.16,821.3,186.16z"/>
			<path class="st1" d="M798.11,186.38l-11.6,0.04c-0.5,0-0.91-0.4-0.91-0.91s0.41-0.91,0.91-0.91h0.01l11.6,0.04
				c0.48,0,0.87,0.39,0.87,0.87C798.98,185.99,798.59,186.37,798.11,186.38z"/>
			<path class="st1" d="M774.92,186.46l-11.59,0.04c-0.55,0-0.99-0.44-1-0.99c0-0.55,0.44-0.99,0.99-1h0.01l11.59,0.04
				c0.53,0,0.95,0.43,0.95,0.96C775.87,186.03,775.45,186.46,774.92,186.46z"/>
			<path class="st1" d="M751.73,186.5l-11.6-0.04c-0.53,0-0.95-0.43-0.95-0.96c0-0.52,0.43-0.95,0.95-0.95l11.6-0.04
				c0.55,0,1,0.44,1,0.99S752.29,186.5,751.73,186.5L751.73,186.5z"/>
			<path class="st1" d="M728.54,186.42l-11.59-0.04c-0.48,0-0.87-0.39-0.87-0.88c0-0.48,0.39-0.87,0.87-0.87l11.59-0.04
				c0.5,0,0.91,0.41,0.92,0.91C729.46,186.01,729.05,186.42,728.54,186.42L728.54,186.42z"/>
			<path class="st1" d="M705.35,186.29l-11.6-0.12c-0.36,0-0.66-0.3-0.65-0.67c0-0.36,0.29-0.65,0.65-0.65l11.6-0.12
				c0.43,0,0.79,0.34,0.79,0.77s-0.34,0.79-0.77,0.79C705.37,186.29,705.36,186.29,705.35,186.29z"/>
			<path class="st1" d="M682.16,186.04l-11.6-0.18c-0.19,0-0.35-0.16-0.34-0.36c0-0.19,0.16-0.34,0.34-0.34l11.6-0.18
				c0.3,0,0.54,0.23,0.54,0.53c0,0.3-0.23,0.54-0.53,0.54C682.18,186.04,682.17,186.04,682.16,186.04z"/>
			<path class="st1" d="M658.94,185.65l-6.16-0.14l6.16-0.14c0.08,0,0.15,0.06,0.15,0.14S659.03,185.65,658.94,185.65
				C658.95,185.65,658.94,185.65,658.94,185.65z"/>
		</g>
	</g>
	<g>
		<polygon class="st2" points="313.96,520.62 300.1,525.75 300.1,518.91 313.96,513.77 		"/>
		<polygon class="st2" points="313.96,532.5 300.1,537.63 300.1,530.79 313.96,525.65 		"/>
		<polygon class="st2" points="313.96,544.38 300.1,549.51 300.1,542.67 313.96,537.53 		"/>
		<polygon class="st2" points="313.96,556.26 300.1,561.39 300.1,554.55 313.96,549.42 		"/>
		<polygon class="st2" points="313.96,568.14 300.1,573.27 300.1,566.43 313.96,561.3 		"/>
		<polygon class="st2" points="313.96,580.02 300.1,585.16 300.1,578.31 313.96,573.18 		"/>
		<polygon class="st2" points="313.96,591.9 300.1,597.04 300.1,590.19 313.96,585.06 		"/>
		<polygon class="st2" points="313.96,603.78 300.1,608.92 300.1,602.07 313.96,596.94 		"/>
		<polygon class="st2" points="313.96,615.66 300.1,620.8 300.1,613.95 313.96,608.82 		"/>
		<polygon class="st2" points="313.96,627.54 300.1,632.68 300.1,625.83 313.96,620.7 		"/>
		<polygon class="st2" points="313.96,639.42 300.1,644.56 300.1,637.71 313.96,632.58 		"/>
		<polygon class="st2" points="313.96,651.31 300.1,656.44 300.1,649.59 313.96,644.46 		"/>
		<polygon class="st2" points="313.96,663.19 300.1,668.32 300.1,661.47 313.96,656.34 		"/>
		<polygon class="st2" points="313.96,675.07 300.1,680.2 300.1,673.36 313.96,668.22 		"/>
		<polygon class="st2" points="313.96,686.95 300.1,692.08 300.1,685.24 313.96,680.1 		"/>
	</g>
	<path class="st1" d="M394.13,189.84c-1.34,0-2.47,0.86-2.89,2.05h-35.61l-37.26,37.95l-0.29,0.3v39.97
		c-1.19,0.43-2.05,1.55-2.05,2.89c0,1.7,1.38,3.08,3.08,3.08c1.7,0,3.08-1.38,3.08-3.08c0-1.34-0.86-2.47-2.05-2.89v-39.13
		l36.37-37.04h34.75c0.43,1.19,1.55,2.05,2.89,2.05c1.7,0,3.08-1.38,3.08-3.08S395.83,189.84,394.13,189.84z"/>
	<linearGradient id="SVGID_1_" gradientUnits="userSpaceOnUse" x1="377.632" y1="300.3865" x2="929.953" y2="300.3865">
		<stop  offset="0" style="stop-color:#FF00FF"/>
		<stop  offset="1" style="stop-color:#0000FF"/>
	</linearGradient>
	<line class="st3" x1="378.65" y1="300.39" x2="928.94" y2="300.39"/>
	<linearGradient id="SVGID_2_" gradientUnits="userSpaceOnUse" x1="321.6633" y1="816.8278" x2="760.4136" y2="816.8278">
		<stop  offset="0" style="stop-color:#FF00FF"/>
		<stop  offset="1" style="stop-color:#000000;stop-opacity:0"/>
	</linearGradient>
	<line class="st4" x1="321.66" y1="816.83" x2="760.41" y2="816.83"/>
	<linearGradient id="SVGID_3_" gradientUnits="userSpaceOnUse" x1="321.6633" y1="809.1274" x2="735.8337" y2="809.1274">
		<stop  offset="0" style="stop-color:#FF00FF"/>
		<stop  offset="1" style="stop-color:#000000;stop-opacity:0"/>
	</linearGradient>
	<line class="st5" x1="321.66" y1="809.13" x2="735.83" y2="809.13"/>
	<linearGradient id="SVGID_4_" gradientUnits="userSpaceOnUse" x1="321.6633" y1="801.4269" x2="711.2539" y2="801.4269">
		<stop  offset="0" style="stop-color:#FF00FF"/>
		<stop  offset="1" style="stop-color:#000000;stop-opacity:0"/>
	</linearGradient>
	<line class="st6" x1="321.66" y1="801.43" x2="711.25" y2="801.43"/>
	<linearGradient id="SVGID_5_" gradientUnits="userSpaceOnUse" x1="620.1672" y1="184.4786" x2="620.1672" y2="828.7147">
		<stop  offset="0" style="stop-color:#0000FF"/>
		<stop  offset="1" style="stop-color:#FF00FF"/>
	</linearGradient>
	<polygon class="st7" points="868.39,184.48 868.39,186.53 901.91,186.53 910.49,199.77 927.91,199.77 927.91,374.59 918.02,383.89 
		918.02,487.25 927.91,496.55 927.91,785.68 892.02,821.57 757.8,821.57 752.72,826.66 312.42,826.66 312.42,697.81 321.26,697.81 
		321.26,505.57 312.42,505.57 312.42,227.51 353.4,186.53 645.59,186.53 645.59,184.48 352.55,184.48 310.37,226.66 310.37,507.62 
		319.21,507.62 319.21,695.76 310.37,695.76 310.37,828.71 887.78,828.71 929.97,786.53 929.97,184.48 	"/>
	<circle class="st8" cx="378.65" cy="300.39" r="2.46"/>
</g>
</svg>
